<svg xmlns="http://www.w3.org/2000/svg" xmlns:xlink="http://www.w3.org/1999/xlink" viewBox="0 0 461.04 189.46"><defs><style>.cls-1{fill:#231f20;}.cls-2{fill:#f2f2f2;}</style><symbol id="Anoop_mobile_logo" data-name="Anoop_mobile_logo" viewBox="0 0 461.04 189.46"><polygon class="cls-1" points="81.32 10.61 10.61 81.32 0 70.71 70.71 0 81.32 10.61"/><polygon class="cls-1" points="130.81 81.32 60.1 10.61 70.71 0 141.42 70.71 130.81 81.32"/><polygon class="cls-1" points="78.02 41.1 21.45 97.67 14.38 90.6 70.95 34.03 78.02 41.1"/><polygon class="cls-1" points="127.3 90.38 126.9 89.98 70.95 34.03 63.88 41.1 117.3 94.52 117.3 169.98 127.3 169.98 127.3 90.81 127.3 90.38"/><path class="cls-2" d="M132.7,96"/><polygon class="cls-1" points="38.58 13.76 12.56 13.76 12.56 45.39 13.27 45.39 38.58 20.08 38.58 13.76"/><path d="M153.85,118.86H161V170h-7.17Zm3.69,24.47h16.35a7.59,7.59,0,0,0,4.08-1.09,7.2,7.2,0,0,0,2.72-3.09,11.51,11.51,0,0,0,0-9.25,7.37,7.37,0,0,0-2.72-3.11,7.52,7.52,0,0,0-4.08-1.11H157.54v-6.82h16.1a16.18,16.18,0,0,1,8.05,2,13.64,13.64,0,0,1,5.4,5.51,18.62,18.62,0,0,1,0,16.43,13.48,13.48,0,0,1-5.4,5.47,16.28,16.28,0,0,1-8.05,1.93h-16.1Z"/><path d="M198,118.86h7.17V126H198Zm0,14.63h7.17V170H198Z"/><path d="M216,133.49h7.17V170H216Zm22.15,14.38a8.33,8.33,0,0,0-2-6,7.36,7.36,0,0,0-5.62-2.11,7.48,7.48,0,0,0-5.43,1.86,7,7,0,0,0-1.92,5.24l-.74-7a13.11,13.11,0,0,1,4.42-5.1,10.75,10.75,0,0,1,6-1.79q5.94,0,9.19,3.89t3.25,11V170h-7.17Z"/><path d="M262.55,168.61a12.67,12.67,0,0,1-5.46-5.57,19.22,19.22,0,0,1-1.89-8.88v-4.11A21.64,21.64,0,0,1,257,140.8a13,13,0,0,1,5.26-5.84,16.3,16.3,0,0,1,8.3-2,13.12,13.12,0,0,1,7.8,2.29,14.15,14.15,0,0,1,4.94,6.61A28.19,28.19,0,0,1,285,152.23v2.39H260.41v-5.77H278.2a12.23,12.23,0,0,0-2.31-6.94,6.47,6.47,0,0,0-5.32-2.48,7.77,7.77,0,0,0-6.31,2.67q-2.24,2.67-2.24,7.56v4.64q0,4.53,2.4,7a9.07,9.07,0,0,0,6.78,2.43,11.42,11.42,0,0,0,4.32-.88,12.73,12.73,0,0,0,3.84-2.46l4.71,4.71a20,20,0,0,1-6.08,4,17.36,17.36,0,0,1-6.79,1.43A18.35,18.35,0,0,1,262.55,168.61Z"/><path d="M294.86,118.86H302V170h-7.17Zm22.15,29a8.33,8.33,0,0,0-2-6,7.36,7.36,0,0,0-5.62-2.11,7.56,7.56,0,0,0-5.43,1.83,6.8,6.8,0,0,0-1.92,5.17l-.74-7a13,13,0,0,1,4.42-5,10.74,10.74,0,0,1,6-1.78q5.94,0,9.19,3.89t3.25,11V170H317Z"/><path d="M342.25,155.67a8.38,8.38,0,0,0,1.95,5.93,7.17,7.17,0,0,0,5.5,2.09,7.5,7.5,0,0,0,5.45-1.87,7,7,0,0,0,1.94-5.3l.49,7.62a10.49,10.49,0,0,1-3.66,4.54,10.32,10.32,0,0,1-6.22,1.83q-6,0-9.33-3.89t-3.29-11V133.49h7.17Zm14.84-22.18h7.13V170h-7.13Z"/><path d="M375.12,133.49h7.17V170h-7.17Zm17.69,6.89a8.69,8.69,0,0,0-3.34-.6,7.19,7.19,0,0,0-5.3,1.88,7.09,7.09,0,0,0-1.88,5.22l-.73-7a13.3,13.3,0,0,1,4.36-5.08,10.25,10.25,0,0,1,5.9-1.81,13.39,13.39,0,0,1,4.52.72,10.05,10.05,0,0,1,3.53,2.13l-4.67,6.33A6,6,0,0,0,392.81,140.38Z"/><path d="M412.69,169.87A22,22,0,0,1,407.4,168a20.58,20.58,0,0,1-4.54-3.17l4.25-5.24A24,24,0,0,0,413,163a15.88,15.88,0,0,0,5.76,1.12,12.41,12.41,0,0,0,6.38-1.31,4.35,4.35,0,0,0,2.13-4,3.12,3.12,0,0,0-1.16-2.64,6.63,6.63,0,0,0-2.88-1.17c-1.15-.2-2.77-.38-4.86-.55-.18,0-.38,0-.59,0l-.6,0a1.32,1.32,0,0,1-.28,0h-.28a28.84,28.84,0,0,1-6-1,8.21,8.21,0,0,1-4.09-2.83,9.4,9.4,0,0,1-1.64-5.94,12,12,0,0,1,1.59-6.44,9.61,9.61,0,0,1,4.71-3.85A20.87,20.87,0,0,1,419,133a27.18,27.18,0,0,1,5.43.53,24.29,24.29,0,0,1,4.94,1.56,24.62,24.62,0,0,1,4.53,2.62l-4.32,5.24a24.4,24.4,0,0,0-5.4-2.64,16.62,16.62,0,0,0-5.18-.88,9.82,9.82,0,0,0-5.49,1.25,4.23,4.23,0,0,0-1.83,3.75,2.54,2.54,0,0,0,1,2.21,6.19,6.19,0,0,0,2.62,1q1.59.24,4.5.42a3.15,3.15,0,0,0,.44,0,3.89,3.89,0,0,1,.47,0H421a.76.76,0,0,1,.21,0,31.9,31.9,0,0,1,6.52,1,8.87,8.87,0,0,1,4.52,3.06q1.81,2.3,1.82,6.61a11.72,11.72,0,0,1-1.68,6.52,10.26,10.26,0,0,1-5.08,3.89,24.26,24.26,0,0,1-8.53,1.3A27.15,27.15,0,0,1,412.69,169.87Z"/><path d="M440.37,133.49h16.46V140H440.37Zm5.82,34.22c-1.37-1.63-2.06-4-2.06-7.22V122.87h7.18v37.69a3.46,3.46,0,0,0,.52,2.06,1.8,1.8,0,0,0,1.55.72h3.45v6.82h-4.15Q448.24,170.16,446.19,167.71Z"/></symbol><symbol id="New_Symbol" data-name="New Symbol" viewBox="0 0 461.04 189.46"><use width="461.04" height="189.46" xlink:href="#Anoop_mobile_logo"/></symbol></defs><g id="Layer_2" data-name="Layer 2"><g id="Layer_1-2" data-name="Layer 1"><use width="461.04" height="189.46" xlink:href="#New_Symbol"/></g></g></svg>